# xmcd
#
# Track frame offsets: 
#        150
#        29223
#        51002
#        71666
#        93348
#        113938
#        139697
#        156031
#        176245
#        199433
#        219535
#        239755
#        260101
#        280465
#        301106
#
# Disc length: 4302 seconds
#
# Revision: 2
# Processed by: cddbd v1.5.2PL0 Copyright (c) Steve Scherf et al.
# Submitted via: ExactAudioCopy v0.99pb5
#
DISCID=f010cc0f
DTITLE=Jazz Hamilton - y las estrellas del pueblo
DYEAR=2004
DGENRE=Salsa
TTITLE0=Estrellasd del pueblo
TTITLE1=El que sabe
TTITLE2=Deja que la gente diga
TTITLE3=Invitacion a un mozambique
TTITLE4=Marvin's medley
TTITLE5=Los que son
TTITLE6=Quedate
TTITLE7=De barrio obrero a la 15
TTITLE8=Luiguie's medley
TTITLE9=Asi no papa
TTITLE10=Adalberto's medley
TTITLE11=pa' los caserios
TTITLE12=Pa' los caserios (Rumbon)
TTITLE13=Deja que la gente diga (clean)
TTITLE14=Estrellasd del pueblo (Short)
EXTD=YEAR: 2004
EXTT0=
EXTT1=
EXTT2=
EXTT3=
EXTT4=
EXTT5=
EXTT6=
EXTT7=
EXTT8=
EXTT9=
EXTT10=
EXTT11=
EXTT12=
EXTT13=
EXTT14=
PLAYORDER=
